<?xml version="1.0" encoding="UTF-8" standalone="no"?>
<!-- Created with Inkscape (http://www.inkscape.org/) -->

<svg
   width="23.165997mm"
   height="18.585096mm"
   viewBox="0 0 23.165996 18.585096"
   version="1.1"
   id="svg1"
   xml:space="preserve"
   inkscape:version="1.3.2 (091e20e, 2023-11-25, custom)"
   sodipodi:docname="envelope_email_icon.svg"
   xmlns:inkscape="http://www.inkscape.org/namespaces/inkscape"
   xmlns:sodipodi="http://sodipodi.sourceforge.net/DTD/sodipodi-0.dtd"
   xmlns="http://www.w3.org/2000/svg"
   xmlns:svg="http://www.w3.org/2000/svg"><sodipodi:namedview
     id="namedview1"
     pagecolor="#ffffff"
     bordercolor="#666666"
     borderopacity="1.0"
     inkscape:showpageshadow="2"
     inkscape:pageopacity="0.0"
     inkscape:pagecheckerboard="0"
     inkscape:deskcolor="#d1d1d1"
     inkscape:document-units="mm"
     inkscape:zoom="4.2817231"
     inkscape:cx="72.751084"
     inkscape:cy="34.91585"
     inkscape:window-width="1920"
     inkscape:window-height="1009"
     inkscape:window-x="-8"
     inkscape:window-y="-8"
     inkscape:window-maximized="1"
     inkscape:current-layer="layer1" /><defs
     id="defs1" /><g
     inkscape:label="Layer 1"
     inkscape:groupmode="layer"
     id="layer1"
     transform="translate(-142.3503,-531.03527)"><rect
       style="opacity:0.56305;fill:#ffe02a;fill-opacity:1;stroke:none;stroke-width:1.82388;stroke-linecap:round;stroke-linejoin:round;stroke-dasharray:none;stroke-opacity:1"
       id="rect1004"
       width="20.366352"
       height="14.948979"
       x="145.14995"
       y="534.67139"
       ry="1.6263732" /><path
       style="fill:#000000"
       id="path3"
       d="" /><path
       style="fill:#000000"
       id="path2"
       d="" /><path
       style="fill:#000000"
       id="path59"
       d="" /><path
       style="fill:#000000"
       id="path58"
       d="" /><path
       style="fill:none;stroke:#000000;stroke-width:1.75;stroke-linecap:round;stroke-linejoin:round;stroke-dasharray:none;stroke-opacity:1"
       d="m 143.23603,540.91906 c 0,-7.45887 0.12914,-7.62032 0.12914,-7.62032 0,0 0.35069,-0.62604 0.68568,-0.90601 0.27998,-0.23399 0.99337,-0.41786 0.99337,-0.41786 l 16.75823,-0.0646 c 0,0 0.80795,0.3837 1.16243,0.74267 0.33353,0.33775 0.77494,1.1947 0.77494,1.1947 v 0.93641 0.8718 l -10.13889,5.58608 -6.87766,-3.681"
       id="path1003"
       sodipodi:nodetypes="ccsccsccccc" /><path
       style="fill:none;stroke:#000000;stroke-width:1.75;stroke-linecap:round;stroke-linejoin:round;stroke-dasharray:none;stroke-opacity:1"
       d="m 143.26832,543.01787 c 0,0 -0.15651,2.21148 0.12916,3.26124 0.0898,0.32989 0.19933,0.65195 0.48433,0.9041 0.32735,0.28961 1.42075,0.67808 1.42075,0.67808 h 16.30618 c 0,0 0.87331,-0.36618 1.19988,-0.69275 0.36278,-0.36278 0.76958,-1.33295 0.76958,-1.33295 v -6.01438"
       id="path1004"
       sodipodi:nodetypes="cssccscc" /><path
       style="opacity:0.56305;fill:#18193f;fill-opacity:1;stroke:none;stroke-width:0.807187;stroke-linecap:round;stroke-linejoin:round;stroke-dasharray:none;stroke-opacity:1"
       d="m 41.188143,112.23648 c -0.234925,-0.0911 -6.33077,-3.32366 -13.546322,-7.1835 -10.391216,-5.558599 -13.235539,-7.130722 -13.678738,-7.56055 -1.542999,-1.496444 -1.178042,-3.990803 0.736356,-5.032749 0.828973,-0.451183 1.709142,-0.53538 2.519298,-0.240994 0.341792,0.124196 6.041817,3.128463 12.666723,6.676147 6.624905,3.547686 12.139055,6.471416 12.253668,6.497176 0.114612,0.0258 8.061591,-4.28497 17.659954,-9.579411 l 17.451569,-9.626258 0.03337,-2.084059 0.03337,-2.084061 -0.704589,-1.186261 c -0.87574,-1.474417 -1.629996,-2.238493 -3.030346,-3.069801 l -1.091332,-0.647861 -8.298648,0.06789 c -4.564257,0.03734 -18.568225,0.101799 -31.119931,0.143244 l -22.821282,0.07536 -1.0031444,0.36228 c -1.0735134,0.387693 -1.372103,0.641678 -2.1737168,1.848995 l -0.418081,0.629676 -0.1206515,3.477544 c -0.066358,1.912649 -0.1547317,8.255368 -0.1963855,14.094932 -0.061846,8.670311 -0.1075137,10.718811 -0.2490271,11.170431 -0.2229612,0.71155 -0.7727407,1.37335 -1.4922791,1.79633 -0.4940719,0.29044 -0.7017909,0.33549 -1.547012,0.33549 -0.8452211,0 -1.0529402,-0.0451 -1.547012,-0.33549 -0.3138852,-0.18452 -0.73796375,-0.5384 -0.94239672,-0.78642 -0.75161183,-0.91183 -0.74478668,-0.83141 -0.74297366,-8.75448 C -0.17954978,93.079086 5.5814163e-5,82.776082 0.18412887,80.270642 0.25498837,79.306166 1.2178279,78.206548 1.3321716,77.908797 1.6809471,77.000599 2.493933,74.822087 3.4607344,73.848776 4.5421647,72.760064 5.6230429,72.143421 7.70393,71.428026 l 1.3269518,-0.456197 9.7631152,-0.07791 c 5.369714,-0.04285 20.013514,-0.09916 32.541779,-0.12513 l 22.778664,-0.04723 1.01893,0.528958 c 4.257114,2.209996 5.832133,3.810882 8.176367,8.310649 l 0.408978,0.785037 0.03524,4.081295 c 0.04099,4.747348 0.0097,4.94275 -0.937335,5.862347 -0.438954,0.426216 -4.843905,2.902458 -20.071661,11.283275 l -19.509285,10.73723 -0.810199,0.0459 c -0.498526,0.0282 -0.97451,-0.0178 -1.237333,-0.11975 z"
       id="path1005"
       transform="matrix(0.26458333,0,0,0.26458333,142.42879,512.35608)"
       sodipodi:nodetypes="cssssscscccsscsscsscsssssccsscsscsccsscssscccc" /><path
       style="opacity:0.56305;fill:#18193f;fill-opacity:1;stroke:none;stroke-width:0.807187;stroke-linecap:round;stroke-linejoin:round;stroke-dasharray:none;stroke-opacity:1"
       d="m 9.4580181,137.12433 c -1.4321756,-0.51159 -3.7370047,-1.54482 -4.7148432,-2.11361 -2.5695436,-1.49467 -3.99015207,-3.97657 -4.64716791,-8.11893 -0.18465929,-1.16424 -0.21713867,-2.15022 -0.2121207,-6.43935 0.005211,-4.45403 0.03077499,-5.12848 0.21204386,-5.59431 0.30241588,-0.77715 0.83812638,-1.38823 1.57312935,-1.79445 1.2601373,-0.69645 3.0346829,-0.38126 3.9473285,0.70112 0.7146816,0.8476 0.7110776,0.81647 0.7247053,6.2605 0.00869,3.47337 0.061087,5.30064 0.1713153,5.97488 0.2218382,1.35692 0.6934856,2.77939 1.02149,3.08077 0.3340971,0.30697 1.7046063,1.00145 2.9620674,1.50096 l 0.921029,0.36588 h 30.204508 30.204508 l 0.881735,-0.44351 c 1.797309,-0.90402 2.088288,-1.15141 2.823404,-2.40048 1.298613,-2.20653 1.170325,-0.72028 1.170325,-13.55863 0,-12.33544 -0.02652,-11.86662 0.722758,-12.77563 0.192406,-0.23342 0.643943,-0.58694 1.003416,-0.78559 1.309092,-0.72344 3.081221,-0.37572 4.000505,0.78497 0.783517,0.98927 0.749336,0.33641 0.713209,13.62259 l -0.03284,12.07817 -0.935604,1.8916 c -2.055978,4.15678 -3.31362,5.40041 -7.4948,7.41129 l -1.210673,0.58226 -31.608086,0.0264 -31.608086,0.0264 z"
       id="path1006"
       transform="matrix(0.26458333,0,0,0.26458333,142.42879,512.35608)" /></g></svg>
